<?xml version="1.0" encoding="UTF-8" standalone="no"?>
<!-- Created with Bouml (http://bouml.free.fr/) -->
<!DOCTYPE svg PUBLIC "-//W3C//DTD SVG 1.1//EN" "http://www.w3.org/Graphics/SVG/1.1/DTD/svg11.dtd">
<svg width="839" height="802" version="1.1" xmlns="http://www.w3.org/2000/svg">
<g>
	<rect fill="none" stroke="black" stroke-width="1" stroke-opacity="1" x="6" y="558" width="683" height="232" />
	<text font-family="Helvetica" font-size="9" fill="#000000" xml:space="preserve" text-anchor="middle" x="28" y="574">layer 3</text>
	<line stroke="black" stroke-opacity="1" x1="6" y1="581" x2="50" y2="581" />
	<line stroke="black" stroke-opacity="1" x1="50" y1="581" x2="62" y2="569" />
	<line stroke="black" stroke-opacity="1" x1="62" y1="569" x2="62" y2="558" />
</g>
<g>
	<rect fill="none" stroke="black" stroke-width="1" stroke-opacity="1" x="6" y="300" width="682" height="242" />
	<text font-family="Helvetica" font-size="9" fill="#000000" xml:space="preserve" text-anchor="middle" x="28" y="316">layer 2</text>
	<line stroke="black" stroke-opacity="1" x1="6" y1="323" x2="50" y2="323" />
	<line stroke="black" stroke-opacity="1" x1="50" y1="323" x2="62" y2="311" />
	<line stroke="black" stroke-opacity="1" x1="62" y1="311" x2="62" y2="300" />
</g>
<g>
	<rect fill="none" stroke="black" stroke-width="1" stroke-opacity="1" x="698" y="67" width="51" height="19" />
	<rect fill="none" stroke="black" stroke-width="1" stroke-opacity="1" x="698" y="86" width="129" height="455" />
	<text font-family="Helvetica" font-size="9" fill="#000000" xml:space="preserve" text-anchor="middle" x="763" y="98">LibraryContainers</text>
</g>
<g>
	<rect fill="none" stroke="black" stroke-width="1" stroke-opacity="1" x="27" y="47" width="63" height="19" />
	<rect fill="none" stroke="black" stroke-width="1" stroke-opacity="1" x="27" y="66" width="161" height="186" />
	<text font-family="Helvetica" font-size="9" fill="#000000" xml:space="preserve" text-anchor="middle" x="108" y="78">AppJobs</text>
</g>
<g>
	<rect fill="none" stroke="black" stroke-width="1" stroke-opacity="1" x="13" y="332" width="55" height="19" />
	<rect fill="none" stroke="black" stroke-width="1" stroke-opacity="1" x="13" y="351" width="141" height="175" />
	<text font-family="Helvetica" font-size="9" fill="#000000" xml:space="preserve" text-anchor="middle" x="84" y="363">Stats</text>
</g>
<g>
	<rect fill="none" stroke="black" stroke-width="1" stroke-opacity="1" x="6" y="10" width="683" height="280" />
	<text font-family="Helvetica" font-size="9" fill="#000000" xml:space="preserve" text-anchor="middle" x="28" y="26">layer 1</text>
	<line stroke="black" stroke-opacity="1" x1="6" y1="33" x2="50" y2="33" />
	<line stroke="black" stroke-opacity="1" x1="50" y1="33" x2="62" y2="21" />
	<line stroke="black" stroke-opacity="1" x1="62" y1="21" x2="62" y2="10" />
</g>
<g>
	<rect fill="none" stroke="black" stroke-width="1" stroke-opacity="1" x="325" y="68" width="143" height="19" />
	<rect fill="none" stroke="black" stroke-width="1" stroke-opacity="1" x="325" y="87" width="360" height="172" />
	<text font-family="Helvetica" font-size="9" fill="#000000" xml:space="preserve" text-anchor="middle" x="505" y="99">Structures</text>
</g>
<g>
	<rect fill="none" stroke="black" stroke-width="1" stroke-opacity="1" x="78" y="591" width="60" height="19" />
	<rect fill="none" stroke="black" stroke-width="1" stroke-opacity="1" x="78" y="610" width="153" height="153" />
	<text font-family="Helvetica" font-size="9" fill="#000000" xml:space="preserve" text-anchor="middle" x="155" y="622">Boinc</text>
</g>
<g>
	<rect fill="none" stroke="black" stroke-width="1" stroke-opacity="1" x="218" y="67" width="35" height="19" />
	<rect fill="none" stroke="black" stroke-width="1" stroke-opacity="1" x="218" y="86" width="90" height="101" />
	<text font-family="Helvetica" font-size="9" fill="#000000" xml:space="preserve" text-anchor="middle" x="263" y="98">Main</text>
</g>
<g>
	<rect fill="none" stroke="black" stroke-width="1" stroke-opacity="1" x="184" y="322" width="111" height="19" />
	<rect fill="none" stroke="black" stroke-width="1" stroke-opacity="1" x="184" y="341" width="281" height="188" />
	<text font-family="Helvetica" font-size="9" fill="#000000" xml:space="preserve" text-anchor="middle" x="325" y="353">Jobs</text>
</g>
<g>
	<line stroke="black" stroke-opacity="1" x1="592" y1="120" x2="586" y2="114" />
	<line stroke="black" stroke-opacity="1" x1="592" y1="120" x2="586" y2="126" />
	<line stroke-dasharray="4,4" stroke="black" stroke-opacity="1" x1="473" y1="120" x2="592" y2="120" />
</g>
<g>
	<line stroke="black" stroke-opacity="1" x1="635" y1="198" x2="641" y2="192" />
	<line stroke="black" stroke-opacity="1" x1="635" y1="198" x2="629" y2="192" />
	<line stroke="black" stroke-opacity="1" x1="635" y1="140" x2="635" y2="198" />
	<polygon fill="#ffffff" stroke="black" stroke-opacity="1" points="635,140 641,146 635,152 629,146" />
</g>
<g>
	<line stroke-dasharray="4,4" stroke="black" stroke-opacity="1" x1="289" y1="159" x2="354" y2="159" />
</g>
<g>
	<line stroke="black" stroke-opacity="1" x1="354" y1="198" x2="360" y2="192" />
	<line stroke="black" stroke-opacity="1" x1="354" y1="198" x2="348" y2="192" />
	<line stroke-dasharray="4,4" stroke="black" stroke-opacity="1" x1="354" y1="159" x2="354" y2="198" />
</g>
<g>
	<line stroke-dasharray="4,4" stroke="black" stroke-opacity="1" x1="459" y1="197" x2="459" y2="158" />
</g>
<g>
	<line stroke-dasharray="4,4" stroke="black" stroke-opacity="1" x1="174" y1="108" x2="203" y2="108" />
</g>
<g>
	<line stroke-dasharray="4,4" stroke="black" stroke-opacity="1" x1="203" y1="108" x2="201" y2="361" />
	<line stroke="black" stroke-opacity="1" x1="201" y1="367" x2="207" y2="361" />
	<line stroke="black" stroke-opacity="1" x1="201" y1="367" x2="195" y2="360" />
	<line stroke="black" stroke-opacity="1" x1="207" y1="361" x2="195" y2="360" />
</g>
<g>
	<line stroke-dasharray="4,4" stroke="black" stroke-opacity="1" x1="138" y1="159" x2="202" y2="159" />
</g>
<g>
	<line stroke-dasharray="4,4" stroke="black" stroke-opacity="1" x1="202" y1="159" x2="201" y2="361" />
	<line stroke="black" stroke-opacity="1" x1="201" y1="367" x2="207" y2="361" />
	<line stroke="black" stroke-opacity="1" x1="201" y1="367" x2="195" y2="360" />
	<line stroke="black" stroke-opacity="1" x1="207" y1="361" x2="195" y2="360" />
</g>
<g>
	<line stroke-dasharray="4,4" stroke="black" stroke-opacity="1" x1="127" y1="219" x2="202" y2="219" />
</g>
<g>
	<line stroke-dasharray="4,4" stroke="black" stroke-opacity="1" x1="202" y1="219" x2="201" y2="361" />
	<line stroke="black" stroke-opacity="1" x1="201" y1="367" x2="207" y2="361" />
	<line stroke="black" stroke-opacity="1" x1="201" y1="367" x2="195" y2="360" />
	<line stroke="black" stroke-opacity="1" x1="207" y1="361" x2="195" y2="360" />
</g>
<g>
	<line stroke-dasharray="4,4" stroke="black" stroke-opacity="1" x1="127" y1="207" x2="142" y2="208" />
</g>
<g>
	<line stroke="black" stroke-opacity="1" x1="334" y1="207" x2="327" y2="201" />
	<line stroke="black" stroke-opacity="1" x1="334" y1="207" x2="328" y2="213" />
	<line stroke-dasharray="4,4" stroke="black" stroke-opacity="1" x1="142" y1="208" x2="334" y2="207" />
</g>
<g>
	<line stroke-dasharray="4,4" stroke="black" stroke-opacity="1" x1="165" y1="130" x2="163" y2="208" />
</g>
<g>
	<line stroke="black" stroke-opacity="1" x1="334" y1="207" x2="327" y2="201" />
	<line stroke="black" stroke-opacity="1" x1="334" y1="207" x2="328" y2="213" />
	<line stroke-dasharray="4,4" stroke="black" stroke-opacity="1" x1="163" y1="208" x2="334" y2="207" />
</g>
<g>
	<line stroke-dasharray="4,4" stroke="black" stroke-opacity="1" x1="236" y1="138" x2="236" y2="98" />
</g>
<g>
	<line stroke="black" stroke-opacity="1" x1="174" y1="98" x2="180" y2="104" />
	<line stroke="black" stroke-opacity="1" x1="174" y1="98" x2="180" y2="92" />
	<line stroke-dasharray="4,4" stroke="black" stroke-opacity="1" x1="236" y1="98" x2="174" y2="98" />
</g>
<g>
	<line stroke="black" stroke-opacity="1" x1="138" y1="147" x2="144" y2="153" />
	<line stroke="black" stroke-opacity="1" x1="138" y1="147" x2="144" y2="141" />
	<line stroke-dasharray="4,4" stroke="black" stroke-opacity="1" x1="226" y1="147" x2="138" y2="147" />
</g>
<g>
	<line stroke-dasharray="4,4" stroke="black" stroke-opacity="1" x1="258" y1="179" x2="258" y2="228" />
</g>
<g>
	<line stroke="black" stroke-opacity="1" x1="127" y1="229" x2="133" y2="234" />
	<line stroke="black" stroke-opacity="1" x1="127" y1="229" x2="132" y2="222" />
	<line stroke-dasharray="4,4" stroke="black" stroke-opacity="1" x1="258" y1="228" x2="127" y2="229" />
</g>
<g>
	<line stroke-dasharray="4,4" stroke="black" stroke-opacity="1" x1="197" y1="658" x2="356" y2="658" />
	<line stroke="black" stroke-opacity="1" x1="362" y1="658" x2="356" y2="652" />
	<line stroke="black" stroke-opacity="1" x1="362" y1="658" x2="356" y2="664" />
	<line stroke="black" stroke-opacity="1" x1="356" y1="652" x2="356" y2="664" />
</g>
<g>
	<line stroke="black" stroke-opacity="1" x1="419" y1="408" x2="413" y2="414" />
	<line stroke="black" stroke-opacity="1" x1="419" y1="408" x2="425" y2="414" />
	<line stroke-dasharray="4,4" stroke="black" stroke-opacity="1" x1="419" y1="478" x2="419" y2="408" />
</g>
<g>
	<line stroke="black" stroke-opacity="1" x1="389" y1="388" x2="383" y2="382" />
	<line stroke="black" stroke-opacity="1" x1="389" y1="388" x2="383" y2="394" />
	<line stroke-dasharray="4,4" stroke="black" stroke-opacity="1" x1="299" y1="388" x2="389" y2="388" />
</g>
<g>
	<line stroke="black" stroke-opacity="1" x1="125" y1="509" x2="131" y2="515" />
	<line stroke="black" stroke-opacity="1" x1="125" y1="509" x2="131" y2="503" />
	<line stroke-dasharray="4,4" stroke="black" stroke-opacity="1" x1="374" y1="509" x2="125" y2="509" />
</g>
<g>
	<line stroke-dasharray="4,4" stroke="black" stroke-opacity="1" x1="192" y1="387" x2="87" y2="387" />
</g>
<g>
	<line stroke-dasharray="4,4" stroke="black" stroke-opacity="1" x1="87" y1="387" x2="87" y2="402" />
	<line stroke="black" stroke-opacity="1" x1="87" y1="408" x2="93" y2="402" />
	<line stroke="black" stroke-opacity="1" x1="87" y1="408" x2="81" y2="402" />
	<line stroke="black" stroke-opacity="1" x1="93" y1="402" x2="81" y2="402" />
</g>
<g>
	<line stroke-dasharray="4,4" stroke="black" stroke-opacity="1" x1="398" y1="408" x2="398" y2="428" />
</g>
<g>
	<line stroke-dasharray="4,4" stroke="black" stroke-opacity="1" x1="398" y1="428" x2="131" y2="428" />
	<line stroke="black" stroke-opacity="1" x1="125" y1="428" x2="131" y2="434" />
	<line stroke="black" stroke-opacity="1" x1="125" y1="428" x2="131" y2="422" />
	<line stroke="black" stroke-opacity="1" x1="131" y1="434" x2="131" y2="422" />
</g>
<g>
	<line stroke-dasharray="4,4" stroke="black" stroke-opacity="1" x1="246" y1="408" x2="246" y2="499" />
</g>
<g>
	<line stroke="black" stroke-opacity="1" x1="125" y1="499" x2="131" y2="505" />
	<line stroke="black" stroke-opacity="1" x1="125" y1="499" x2="131" y2="493" />
	<line stroke-dasharray="4,4" stroke="black" stroke-opacity="1" x1="246" y1="499" x2="125" y2="499" />
</g>
<g>
	<line stroke-dasharray="4,4" stroke="black" stroke-opacity="1" x1="406" y1="408" x2="407" y2="459" />
</g>
<g>
	<line stroke-dasharray="4,4" stroke="black" stroke-opacity="1" x1="407" y1="459" x2="78" y2="459" />
</g>
<g>
	<line stroke="black" stroke-opacity="1" x1="78" y1="478" x2="84" y2="472" />
	<line stroke="black" stroke-opacity="1" x1="78" y1="478" x2="72" y2="472" />
	<line stroke-dasharray="4,4" stroke="black" stroke-opacity="1" x1="78" y1="459" x2="78" y2="478" />
</g>
<g>
	<line stroke="black" stroke-opacity="1" x1="150" y1="707" x2="156" y2="701" />
	<line stroke="black" stroke-opacity="1" x1="150" y1="707" x2="144" y2="701" />
	<line stroke-dasharray="4,4" stroke="black" stroke-opacity="1" x1="150" y1="673" x2="150" y2="707" />
</g>
<g>
	<line stroke-dasharray="4,4" stroke="black" stroke-opacity="1" x1="262" y1="408" x2="261" y2="498" />
</g>
<g>
	<line stroke="black" stroke-opacity="1" x1="374" y1="498" x2="368" y2="492" />
	<line stroke="black" stroke-opacity="1" x1="374" y1="498" x2="368" y2="504" />
	<line stroke-dasharray="4,4" stroke="black" stroke-opacity="1" x1="261" y1="498" x2="374" y2="498" />
</g>
<g>
	<line stroke-dasharray="4,4" stroke="black" stroke-opacity="1" x1="656" y1="140" x2="656" y2="169" />
</g>
<g>
	<line stroke-dasharray="4,4" stroke="black" stroke-opacity="1" x1="537" y1="186" x2="537" y2="219" />
</g>
<g>
	<line stroke-dasharray="4,4" stroke="black" stroke-opacity="1" x1="604" y1="166" x2="604" y2="146" />
	<line stroke="black" stroke-opacity="1" x1="604" y1="140" x2="598" y2="146" />
	<line stroke="black" stroke-opacity="1" x1="604" y1="140" x2="610" y2="146" />
	<line stroke="black" stroke-opacity="1" x1="598" y1="146" x2="610" y2="146" />
</g>
<g>
	<line stroke="black" stroke-opacity="1" x1="742" y1="499" x2="736" y2="493" />
	<line stroke="black" stroke-opacity="1" x1="742" y1="499" x2="736" y2="505" />
	<line stroke-dasharray="4,4" stroke="black" stroke-opacity="1" x1="447" y1="499" x2="742" y2="499" />
</g>
<g>
	<line stroke="black" stroke-opacity="1" x1="769" y1="479" x2="775" y2="473" />
	<line stroke="black" stroke-opacity="1" x1="769" y1="479" x2="763" y2="473" />
	<line stroke-dasharray="4,4" stroke="black" stroke-opacity="1" x1="769" y1="218" x2="769" y2="479" />
</g>
<g>
	<line stroke-dasharray="4,4" stroke="black" stroke-opacity="1" x1="190" y1="727" x2="382" y2="727" />
	<line stroke="black" stroke-opacity="1" x1="388" y1="727" x2="382" y2="721" />
	<line stroke="black" stroke-opacity="1" x1="388" y1="727" x2="382" y2="733" />
	<line stroke="black" stroke-opacity="1" x1="382" y1="721" x2="382" y2="733" />
</g>
<g>
	<line stroke-dasharray="4,4" stroke="black" stroke-opacity="1" x1="554" y1="166" x2="604" y2="166" />
</g>
<g>
	<line stroke-dasharray="4,4" stroke="black" stroke-opacity="1" x1="669" y1="218" x2="769" y2="218" />
</g>
<g>
	<line stroke="black" stroke-opacity="1" x1="748" y1="169" x2="742" y2="163" />
	<line stroke="black" stroke-opacity="1" x1="748" y1="169" x2="742" y2="175" />
	<line stroke-dasharray="4,4" stroke="black" stroke-opacity="1" x1="656" y1="169" x2="748" y2="169" />
</g>
<g>
	<line stroke="black" stroke-opacity="1" x1="602" y1="219" x2="596" y2="213" />
	<line stroke="black" stroke-opacity="1" x1="602" y1="219" x2="596" y2="225" />
	<line stroke-dasharray="4,4" stroke="black" stroke-opacity="1" x1="537" y1="219" x2="602" y2="219" />
</g>
<g>
	<line stroke="black" stroke-opacity="1" x1="410" y1="634" x2="416" y2="628" />
	<line stroke="black" stroke-opacity="1" x1="410" y1="634" x2="404" y2="628" />
	<line stroke-dasharray="4,4" stroke="black" stroke-opacity="1" x1="410" y1="519" x2="410" y2="634" />
</g>
<g>
	<line stroke="black" stroke-opacity="1" x1="410" y1="706" x2="416" y2="700" />
	<line stroke="black" stroke-opacity="1" x1="410" y1="706" x2="404" y2="700" />
	<line stroke-dasharray="4,4" stroke="black" stroke-opacity="1" x1="410" y1="675" x2="410" y2="706" />
</g>
<g>
	<line stroke="black" stroke-opacity="1" x1="499" y1="158" x2="493" y2="152" />
	<line stroke="black" stroke-opacity="1" x1="499" y1="158" x2="493" y2="164" />
	<line stroke-dasharray="4,4" stroke="black" stroke-opacity="1" x1="459" y1="158" x2="499" y2="158" />
</g>
<g>
	<rect fill="#808080" stroke="none" stroke-opacity="1" x="673" y="104" width="3" height="35" />
	<rect fill="#808080" stroke="none" stroke-opacity="1" x="597" y="136" width="79" height="3" />
	<rect fill="#ffffc0" stroke="black" stroke-width="1" stroke-opacity="1" x="593" y="100" width="80" height="36" />
	<text font-family="Helvetica" font-size="9" fill="#000000" xml:space="preserve" font-weight="bold" text-anchor="middle" x="633" y="111">StructureSet</text>
	<line stroke="black" stroke-opacity="1" x1="593" y1="120" x2="673" y2="120" />
	<line stroke="black" stroke-opacity="1" x1="593" y1="128" x2="673" y2="128" />
</g>
<g>
	<rect fill="#808080" stroke="none" stroke-opacity="1" x="665" y="203" width="3" height="35" />
	<rect fill="#808080" stroke="none" stroke-opacity="1" x="607" y="235" width="61" height="3" />
	<rect fill="#ffffc0" stroke="black" stroke-width="1" stroke-opacity="1" x="603" y="199" width="62" height="36" />
	<text font-family="Helvetica" font-size="9" fill="#000000" xml:space="preserve" font-weight="bold" text-anchor="middle" x="634" y="210">Structure</text>
	<line stroke="black" stroke-opacity="1" x1="603" y1="219" x2="665" y2="219" />
	<line stroke="black" stroke-opacity="1" x1="603" y1="227" x2="665" y2="227" />
</g>
<g>
	<rect fill="#808080" stroke="none" stroke-opacity="1" x="170" y="94" width="3" height="35" />
	<rect fill="#808080" stroke="none" stroke-opacity="1" x="50" y="126" width="123" height="3" />
	<rect fill="#ffffc0" stroke="black" stroke-width="1" stroke-opacity="1" x="46" y="90" width="124" height="36" />
	<text font-family="Helvetica" font-size="9" fill="#000000" xml:space="preserve" font-weight="bold" text-anchor="middle" x="108" y="101">RepresentativesJob</text>
	<line stroke="black" stroke-opacity="1" x1="46" y1="110" x2="170" y2="110" />
	<line stroke="black" stroke-opacity="1" x1="46" y1="118" x2="170" y2="118" />
</g>
<g>
	<rect fill="#808080" stroke="none" stroke-opacity="1" x="123" y="202" width="3" height="35" />
	<rect fill="#808080" stroke="none" stroke-opacity="1" x="53" y="234" width="73" height="3" />
	<rect fill="#ffffc0" stroke="black" stroke-width="1" stroke-opacity="1" x="49" y="198" width="74" height="36" />
	<text font-family="Helvetica" font-size="9" fill="#000000" xml:space="preserve" font-weight="bold" text-anchor="middle" x="86" y="209">CentersJob</text>
	<line stroke="black" stroke-opacity="1" x1="49" y1="218" x2="123" y2="218" />
	<line stroke="black" stroke-opacity="1" x1="49" y1="226" x2="123" y2="226" />
</g>
<g>
	<rect fill="#808080" stroke="none" stroke-opacity="1" x="442" y="372" width="3" height="35" />
	<rect fill="#808080" stroke="none" stroke-opacity="1" x="394" y="404" width="51" height="3" />
	<rect fill="#ffffc0" stroke="black" stroke-width="1" stroke-opacity="1" x="390" y="368" width="52" height="36" />
	<text font-family="Helvetica" font-size="9" fill="#000000" xml:space="preserve" font-weight="bold" font-style="italic" text-anchor="middle" x="416" y="379">JobUnit</text>
	<line stroke="black" stroke-opacity="1" x1="390" y1="388" x2="442" y2="388" />
	<line stroke="black" stroke-opacity="1" x1="390" y1="396" x2="442" y2="396" />
</g>
<g>
	<rect fill="#808080" stroke="none" stroke-opacity="1" x="285" y="143" width="3" height="35" />
	<rect fill="#808080" stroke="none" stroke-opacity="1" x="231" y="175" width="57" height="3" />
	<rect fill="#ffffc0" stroke="black" stroke-width="1" stroke-opacity="1" x="227" y="139" width="58" height="36" />
	<text font-family="Helvetica" font-size="9" fill="#000000" xml:space="preserve" font-weight="bold" text-anchor="middle" x="256" y="150">MainApp</text>
	<line stroke="black" stroke-opacity="1" x1="227" y1="159" x2="285" y2="159" />
	<line stroke="black" stroke-opacity="1" x1="227" y1="167" x2="285" y2="167" />
</g>
<g>
	<rect fill="#808080" stroke="none" stroke-opacity="1" x="550" y="150" width="3" height="35" />
	<rect fill="#808080" stroke="none" stroke-opacity="1" x="504" y="182" width="49" height="3" />
	<rect fill="#ffffc0" stroke="black" stroke-width="1" stroke-opacity="1" x="500" y="146" width="50" height="36" />
	<text font-family="Helvetica" font-size="9" fill="#000000" xml:space="preserve" font-weight="bold" text-anchor="middle" x="525" y="157">Cluster</text>
	<line stroke="black" stroke-opacity="1" x1="500" y1="166" x2="550" y2="166" />
	<line stroke="black" stroke-opacity="1" x1="500" y1="174" x2="550" y2="174" />
</g>
<g>
	<rect fill="#808080" stroke="none" stroke-opacity="1" x="295" y="372" width="3" height="35" />
	<rect fill="#808080" stroke="none" stroke-opacity="1" x="197" y="404" width="101" height="3" />
	<rect fill="#ffffc0" stroke="black" stroke-width="1" stroke-opacity="1" x="193" y="368" width="102" height="36" />
	<text font-family="Helvetica" font-size="9" fill="#000000" xml:space="preserve" font-weight="bold" font-style="italic" text-anchor="middle" x="244" y="379">DistributableJob</text>
	<line stroke="black" stroke-opacity="1" x1="193" y1="388" x2="295" y2="388" />
	<line stroke="black" stroke-opacity="1" x1="193" y1="396" x2="295" y2="396" />
</g>
<g>
	<rect fill="#808080" stroke="none" stroke-opacity="1" x="443" y="483" width="3" height="35" />
	<rect fill="#808080" stroke="none" stroke-opacity="1" x="379" y="515" width="67" height="3" />
	<rect fill="#ffffc0" stroke="black" stroke-width="1" stroke-opacity="1" x="375" y="479" width="68" height="36" />
	<text font-family="Helvetica" font-size="9" fill="#000000" xml:space="preserve" font-weight="bold" text-anchor="middle" x="409" y="490">Distributer</text>
	<line stroke="black" stroke-opacity="1" x1="375" y1="499" x2="443" y2="499" />
	<line stroke="black" stroke-opacity="1" x1="375" y1="507" x2="443" y2="507" />
</g>
<g>
	<rect fill="#808080" stroke="none" stroke-opacity="1" x="193" y="637" width="3" height="35" />
	<rect fill="#808080" stroke="none" stroke-opacity="1" x="107" y="669" width="89" height="3" />
	<rect fill="#ffffc0" stroke="black" stroke-width="1" stroke-opacity="1" x="103" y="633" width="90" height="36" />
	<text font-family="Helvetica" font-size="9" fill="#000000" xml:space="preserve" font-weight="bold" text-anchor="middle" x="148" y="644">BoincManager</text>
	<line stroke="black" stroke-opacity="1" x1="103" y1="653" x2="193" y2="653" />
	<line stroke="black" stroke-opacity="1" x1="103" y1="661" x2="193" y2="661" />
</g>
<g>
	<rect fill="#808080" stroke="none" stroke-opacity="1" x="453" y="639" width="3" height="35" />
	<rect fill="#808080" stroke="none" stroke-opacity="1" x="367" y="671" width="89" height="3" />
	<rect fill="#ffffc0" stroke="black" stroke-width="1" stroke-opacity="1" x="363" y="635" width="90" height="36" />
	<text font-family="Helvetica" font-size="9" fill="#000000" xml:space="preserve" font-weight="bold" font-style="italic" text-anchor="middle" x="408" y="646">ClientManager</text>
	<line stroke="black" stroke-opacity="1" x1="363" y1="655" x2="453" y2="655" />
	<line stroke="black" stroke-opacity="1" x1="363" y1="663" x2="453" y2="663" />
</g>
<g>
	<rect fill="#808080" stroke="none" stroke-opacity="1" x="429" y="711" width="3" height="35" />
	<rect fill="#808080" stroke="none" stroke-opacity="1" x="393" y="743" width="39" height="3" />
	<rect fill="#ffffc0" stroke="black" stroke-width="1" stroke-opacity="1" x="389" y="707" width="40" height="36" />
	<text font-family="Helvetica" font-size="9" fill="#000000" xml:space="preserve" font-weight="bold" font-style="italic" text-anchor="middle" x="409" y="718">Client</text>
	<line stroke="black" stroke-opacity="1" x1="389" y1="727" x2="429" y2="727" />
	<line stroke="black" stroke-opacity="1" x1="389" y1="735" x2="429" y2="735" />
</g>
<g>
	<rect fill="#808080" stroke="none" stroke-opacity="1" x="793" y="484" width="3" height="35" />
	<rect fill="#808080" stroke="none" stroke-opacity="1" x="747" y="516" width="49" height="3" />
	<rect fill="#ffffc0" stroke="black" stroke-width="1" stroke-opacity="1" x="743" y="480" width="50" height="36" />
	<text font-family="Helvetica" font-size="9" fill="#000000" xml:space="preserve" font-weight="bold" text-anchor="middle" x="768" y="491">List&lt;T&gt;</text>
	<line stroke="black" stroke-opacity="1" x1="743" y1="500" x2="793" y2="500" />
	<line stroke="black" stroke-opacity="1" x1="743" y1="508" x2="793" y2="508" />
</g>
<g>
	<line stroke="black" stroke-opacity="1" x1="450" y1="218" x2="444" y2="212" />
	<line stroke="black" stroke-opacity="1" x1="450" y1="218" x2="444" y2="224" />
	<line stroke-dasharray="4,4" stroke="black" stroke-opacity="1" x1="425" y1="218" x2="450" y2="218" />
</g>
<g>
	<line stroke="black" stroke-opacity="1" x1="383" y1="140" x2="377" y2="146" />
	<line stroke="black" stroke-opacity="1" x1="383" y1="140" x2="389" y2="146" />
	<line stroke-dasharray="4,4" stroke="black" stroke-opacity="1" x1="383" y1="198" x2="383" y2="140" />
</g>
<g>
	<line stroke-dasharray="4,4" stroke="black" stroke-opacity="1" x1="138" y1="169" x2="163" y2="168" />
</g>
<g>
	<line stroke-dasharray="4,4" stroke="black" stroke-opacity="1" x1="163" y1="168" x2="163" y2="208" />
</g>
<g>
	<line stroke="black" stroke-opacity="1" x1="334" y1="207" x2="327" y2="201" />
	<line stroke="black" stroke-opacity="1" x1="334" y1="207" x2="328" y2="213" />
	<line stroke-dasharray="4,4" stroke="black" stroke-opacity="1" x1="163" y1="208" x2="334" y2="207" />
</g>
<g>
	<rect fill="#808080" stroke="none" stroke-opacity="1" x="134" y="143" width="3" height="35" />
	<rect fill="#808080" stroke="none" stroke-opacity="1" x="52" y="175" width="85" height="3" />
	<rect fill="#ffffc0" stroke="black" stroke-width="1" stroke-opacity="1" x="48" y="139" width="86" height="36" />
	<text font-family="Helvetica" font-size="9" fill="#000000" xml:space="preserve" font-weight="bold" text-anchor="middle" x="91" y="150">ClusterizeJob</text>
	<line stroke="black" stroke-opacity="1" x1="48" y1="159" x2="134" y2="159" />
	<line stroke="black" stroke-opacity="1" x1="48" y1="167" x2="134" y2="167" />
</g>
<g>
	<rect fill="#808080" stroke="none" stroke-opacity="1" x="797" y="153" width="3" height="35" />
	<rect fill="#808080" stroke="none" stroke-opacity="1" x="753" y="185" width="47" height="3" />
	<rect fill="#ffffc0" stroke="black" stroke-width="1" stroke-opacity="1" x="749" y="149" width="48" height="36" />
	<text font-family="Helvetica" font-size="9" fill="#000000" xml:space="preserve" font-weight="bold" text-anchor="middle" x="773" y="160">Set&lt;T&gt;</text>
	<line stroke="black" stroke-opacity="1" x1="749" y1="169" x2="797" y2="169" />
	<line stroke="black" stroke-opacity="1" x1="749" y1="177" x2="797" y2="177" />
</g>
<g>
	<rect fill="#808080" stroke="none" stroke-opacity="1" x="421" y="203" width="3" height="35" />
	<rect fill="#808080" stroke="none" stroke-opacity="1" x="339" y="235" width="85" height="3" />
	<rect fill="#ffffc0" stroke="black" stroke-width="1" stroke-opacity="1" x="335" y="199" width="86" height="36" />
	<text font-family="Helvetica" font-size="9" fill="#000000" xml:space="preserve" font-weight="bold" text-anchor="middle" x="378" y="210">StructuresDB</text>
	<line stroke="black" stroke-opacity="1" x1="335" y1="219" x2="421" y2="219" />
	<line stroke="black" stroke-opacity="1" x1="335" y1="227" x2="421" y2="227" />
</g>
<g>
	<rect fill="#808080" stroke="none" stroke-opacity="1" x="525" y="202" width="3" height="35" />
	<rect fill="#808080" stroke="none" stroke-opacity="1" x="455" y="234" width="73" height="3" />
	<rect fill="#ffffc0" stroke="black" stroke-width="1" stroke-opacity="1" x="451" y="198" width="74" height="36" />
	<text font-family="Helvetica" font-size="9" fill="#000000" xml:space="preserve" font-weight="bold" text-anchor="middle" x="488" y="209">ClustersDB</text>
	<line stroke="black" stroke-opacity="1" x1="451" y1="218" x2="525" y2="218" />
	<line stroke="black" stroke-opacity="1" x1="451" y1="226" x2="525" y2="226" />
</g>
<g>
	<rect fill="#808080" stroke="none" stroke-opacity="1" x="469" y="104" width="3" height="35" />
	<rect fill="#808080" stroke="none" stroke-opacity="1" x="343" y="136" width="129" height="3" />
	<rect fill="#ffffc0" stroke="black" stroke-width="1" stroke-opacity="1" x="339" y="100" width="130" height="36" />
	<text font-family="Helvetica" font-size="9" fill="#000000" xml:space="preserve" font-weight="bold" text-anchor="middle" x="404" y="111">MarkedStructuresDB</text>
	<line stroke="black" stroke-opacity="1" x1="339" y1="120" x2="469" y2="120" />
	<line stroke="black" stroke-opacity="1" x1="339" y1="128" x2="469" y2="128" />
</g>
<g>
	<rect fill="#808080" stroke="none" stroke-opacity="1" x="121" y="483" width="3" height="35" />
	<rect fill="#808080" stroke="none" stroke-opacity="1" x="37" y="515" width="87" height="3" />
	<rect fill="#ffffc0" stroke="black" stroke-width="1" stroke-opacity="1" x="33" y="479" width="88" height="36" />
	<text font-family="Helvetica" font-size="9" fill="#000000" xml:space="preserve" font-weight="bold" text-anchor="middle" x="77" y="490">StatsManager</text>
	<line stroke="black" stroke-opacity="1" x1="33" y1="499" x2="121" y2="499" />
	<line stroke="black" stroke-opacity="1" x1="33" y1="507" x2="121" y2="507" />
</g>
<g>
	<rect fill="#808080" stroke="none" stroke-opacity="1" x="186" y="712" width="3" height="35" />
	<rect fill="#808080" stroke="none" stroke-opacity="1" x="116" y="744" width="73" height="3" />
	<rect fill="#ffffc0" stroke="black" stroke-width="1" stroke-opacity="1" x="112" y="708" width="74" height="36" />
	<text font-family="Helvetica" font-size="9" fill="#000000" xml:space="preserve" font-weight="bold" text-anchor="middle" x="149" y="719">BoincClient</text>
	<line stroke="black" stroke-opacity="1" x1="112" y1="728" x2="186" y2="728" />
	<line stroke="black" stroke-opacity="1" x1="112" y1="736" x2="186" y2="736" />
</g>
<g>
	<rect fill="#808080" stroke="none" stroke-opacity="1" x="121" y="413" width="3" height="35" />
	<rect fill="#808080" stroke="none" stroke-opacity="1" x="55" y="445" width="69" height="3" />
	<rect fill="#ffffc0" stroke="black" stroke-width="1" stroke-opacity="1" x="51" y="409" width="70" height="36" />
	<text font-family="Helvetica" font-size="9" fill="#000000" xml:space="preserve" font-weight="bold" font-style="italic" text-anchor="middle" x="86" y="420">StatsClient</text>
	<line stroke="black" stroke-opacity="1" x1="51" y1="429" x2="121" y2="429" />
	<line stroke="black" stroke-opacity="1" x1="51" y1="437" x2="121" y2="437" />
</g>
<g>
	<text font-family="Helvetica" font-size="9" fill="#000000" xml:space="preserve" x="299" y="396">&lt;&lt;instantiate&gt;&gt;</text>
</g>
</svg>
